<svg version="1.1" id="Layer_1" xmlns="http://www.w3.org/2000/svg" xmlns:xlink="http://www.w3.org/1999/xlink" x="0px" y="0px" width="100%" viewBox="0 0 821 490" enable-background="new 0 0 821 490" xml:space="preserve">
<path fill="#004DB8" opacity="1.000000" stroke="none" d="
M500.000000,0.999995 
	C544.020874,1.000000 588.041809,1.000000 632.621216,1.338336 
	C637.990967,7.835305 642.839172,13.965447 647.606323,20.158041 
	C660.812256,37.312923 673.911682,54.550251 687.188171,71.650185 
	C703.876465,93.144279 720.758667,114.487808 737.444031,135.984116 
	C750.718445,153.085922 763.808472,170.330750 777.007568,187.491089 
	C787.133545,200.655869 797.216492,213.855255 807.490295,226.904068 
	C812.110901,232.772736 817.150513,238.311539 822.000000,244.000000 
	C822.000000,245.066666 822.000000,246.133347 821.669434,247.684723 
	C816.508423,254.328278 811.640991,260.458435 806.854492,266.651154 
	C791.000183,287.163086 775.126404,307.660217 759.355103,328.235901 
	C747.861389,343.231049 736.562256,358.375305 725.094727,373.390686 
	C712.925293,389.325287 700.620422,405.156494 688.446960,421.088043 
	C676.875183,436.232208 665.354065,451.415588 653.894409,466.644714 
	C647.837585,474.693909 641.959045,482.877258 636.000000,491.000000 
	C590.979126,491.000000 545.958191,491.000000 500.557190,490.665253 
	C507.797821,480.376617 515.377441,470.390930 523.047791,460.475494 
	C539.205017,439.589172 555.467773,418.784271 571.576599,397.860779 
	C584.390564,381.216858 596.983826,364.403137 609.779846,347.745178 
	C621.298340,332.750366 633.011841,317.905457 644.543701,302.920776 
	C658.648071,284.593262 672.694458,266.220428 686.601868,247.743713 
	C687.481079,246.575684 687.733337,243.741180 686.940552,242.693176 
	C678.577698,231.637878 669.883484,220.834335 661.397949,209.870544 
	C650.432312,195.702194 639.598206,181.432053 628.660889,167.241623 
	C619.406067,155.234055 610.083984,143.278320 600.793518,131.298172 
	C589.510681,116.748871 578.227539,102.199821 566.948914,87.647263 
	C557.560547,75.533646 548.165588,63.425072 538.796692,51.296341 
	C525.853088,34.539719 512.931213,17.766247 500.000000,0.999995 
z" data-index="0" style="visibility: visible; opacity: 1;"></path>
<path fill="#D02929" opacity="1.000000" stroke="none" d="
M478.000000,491.000000 
	C433.645782,491.000000 389.291534,491.000000 344.468658,490.531342 
	C344.000000,327.041779 344.000000,164.020889 344.000000,1.000000 
	C388.354218,1.000000 432.708466,1.000000 477.531342,1.468657 
	C478.000000,164.958206 478.000000,327.979095 478.000000,491.000000 
z" data-index="1" style="visibility: visible; opacity: 1;"></path>
<path fill="#004DB8" opacity="1.000000" stroke="none" d="
M0.999999,249.000000 
	C1.000000,247.285645 1.000000,245.571289 1.362742,243.424255 
	C3.610737,240.693390 5.538636,238.428711 7.374423,236.091690 
	C20.869112,218.912354 34.474499,201.817856 47.791126,184.501373 
	C61.076626,167.225357 73.978775,149.654984 87.209549,132.336304 
	C102.931084,111.757324 118.877022,91.349876 134.625656,70.791443 
	C147.192154,54.387020 159.700638,37.936214 172.046341,21.365541 
	C176.958939,14.771763 181.363922,7.799792 186.000000,0.999998 
	C231.354233,1.000000 276.708466,1.000000 322.442810,1.334746 
	C315.201538,11.624378 307.621307,21.611094 299.950256,31.527563 
	C283.791595,52.416042 267.527679,73.223305 251.416962,94.148582 
	C238.601440,110.793892 225.999420,127.603470 213.210327,144.269302 
	C200.606598,160.693604 187.856903,177.005783 175.226257,193.409531 
	C162.209534,210.314682 149.213699,227.236725 136.379944,244.280304 
	C135.505402,245.441742 135.353516,248.112915 136.094528,249.339508 
	C138.104141,252.666046 140.768463,255.598282 143.185394,258.677307 
	C156.682968,275.872284 170.260025,293.005585 183.663559,310.273560 
	C198.047745,328.804871 212.219986,347.500580 226.578400,366.052032 
	C238.557587,381.529449 250.730728,396.856750 262.711731,412.332764 
	C277.072296,430.882477 291.341797,449.502808 305.603363,468.128815 
	C309.833923,473.653992 313.904877,479.301392 317.818787,485.216492 
	C315.237518,486.026764 312.887451,486.931885 310.535126,486.937714 
	C269.652344,487.038422 228.769257,487.028717 187.571472,486.908447 
	C176.410477,472.918671 165.523956,459.094910 154.727051,445.201508 
	C136.334579,421.534241 118.001419,397.820862 99.637657,374.131256 
	C84.666512,354.818176 69.643120,335.545410 54.723099,316.192902 
	C38.221466,294.788940 21.834799,273.296265 5.303044,251.915710 
	C4.296048,250.613373 2.453677,249.956955 0.999999,249.000000 
z" data-index="2" style="visibility: visible; opacity: 1;"></path>

<path fill="#FFFFFF" opacity="1.000000" stroke="none" d="
M318.048950,484.892792 
	C313.904877,479.301392 309.833923,473.653992 305.603363,468.128815 
	C291.341797,449.502808 277.072296,430.882477 262.711731,412.332764 
	C250.730728,396.856750 238.557587,381.529449 226.578400,366.052032 
	C212.219986,347.500580 198.047745,328.804871 183.663559,310.273560 
	C170.260025,293.005585 156.682968,275.872284 143.185394,258.677307 
	C140.768463,255.598282 138.104141,252.666046 136.094528,249.339508 
	C135.353516,248.112915 135.505402,245.441742 136.379944,244.280304 
	C149.213699,227.236725 162.209534,210.314682 175.226257,193.409531 
	C187.856903,177.005783 200.606598,160.693604 213.210327,144.269302 
	C225.999420,127.603470 238.601440,110.793892 251.416962,94.148582 
	C267.527679,73.223305 283.791595,52.416042 299.950256,31.527563 
	C307.621307,21.611094 315.201538,11.624378 322.911438,1.334746 
	C329.687653,1.000000 336.375275,1.000000 343.531464,1.000000 
	C344.000000,164.020889 344.000000,327.041779 344.000000,490.531342 
	C337.312347,491.000000 330.624725,491.000000 323.385132,490.671448 
	C321.238434,488.526215 319.643707,486.709503 318.048950,484.892792 
z" data-index="4" style="visibility: hidden; opacity: 1;"></path>

<path fill="#FFFFFF" opacity="1.000000" stroke="none" d="
M0.999999,249.468658 
	C2.453677,249.956955 4.296048,250.613373 5.303044,251.915710 
	C21.834799,273.296265 38.221466,294.788940 54.723099,316.192902 
	C69.643120,335.545410 84.666512,354.818176 99.637657,374.131256 
	C118.001419,397.820862 136.334579,421.534241 154.727051,445.201508 
	C165.523956,459.094910 176.410477,472.918671 187.717407,487.235077 
	C188.452072,488.797577 188.726044,489.898804 189.000000,491.000000 
	C126.397141,491.000000 63.794285,491.000000 1.000000,491.000000 
	C1.000000,410.645874 1.000000,330.291595 0.999999,249.468658 
z" data-index="6" style="visibility: hidden; opacity: 1;"></path>

<path fill="#FFFFFF" opacity="1.000000" stroke="none" d="
M185.531342,0.999998 
	C181.363922,7.799792 176.958939,14.771763 172.046341,21.365541 
	C159.700638,37.936214 147.192154,54.387020 134.625656,70.791443 
	C118.877022,91.349876 102.931084,111.757324 87.209549,132.336304 
	C73.978775,149.654984 61.076626,167.225357 47.791126,184.501373 
	C34.474499,201.817856 20.869112,218.912354 7.374423,236.091690 
	C5.538636,238.428711 3.610737,240.693390 1.362742,242.995789 
	C1.000000,162.416046 1.000000,81.832092 1.000000,1.000000 
	C62.354004,1.000000 123.708344,1.000000 185.531342,0.999998 
z" data-index="8" style="visibility: hidden; opacity: 1;"></path>
<path fill="#004DB8" opacity="1.000000" stroke="none" d="
M189.468658,491.000000 
	C188.726044,489.898804 188.452072,488.797577 188.032166,487.369751 
	C228.769257,487.028717 269.652344,487.038422 310.535126,486.937714 
	C312.887451,486.931885 315.237518,486.026764 317.818787,485.216492 
	C319.643707,486.709503 321.238434,488.526215 322.916565,490.671448 
	C278.645782,491.000000 234.291550,491.000000 189.468658,491.000000 
z" data-index="9" style="visibility: visible;"></path>
</svg>